 <svg  version="1.0" xmlns="http://www.w3.org/2000/svg"  width="900.000000pt" height="900.000000pt" viewBox="0 0 900.000000 900.000000"  preserveAspectRatio="xMidYMid meet">  <g transform="translate(0.000000,900.000000) scale(0.100000,-0.100000)" fill="#ff7b00" stroke="none"> <path d="M4240 8744 c-176 -11 -538 -62 -645 -90 -33 -9 -76 -20 -95 -24 -121 -27 -282 -75 -390 -115 -69 -26 -161 -60 -205 -77 -44 -16 -141 -58 -215 -94 -74 -37 -155 -76 -180 -87 -25 -12 -115 -64 -200 -115 -85 -51 -164 -99 -175 -105 -79 -47 -407 -305 -501 -393 -64 -60 -120 -111 -125 -112 -21 -8 -318 -335 -379 -417 -205 -276 -245 -334 -377 -555 -129 -216 -328 -671 -388 -890 -72 -262 -105 -397 -119 -495 -9 -60 -24 -155 -34 -210 -14 -84 -17 -171 -17 -535 1 -458 0 -448 55 -790 12 -70 89 -384 121 -488 11 -35 38 -112 60 -170 22 -59 54 -143 71 -187 60 -157 216 -463 329 -643 125 -201 336 -490 432 -592 271 -289 442 -445 682 -625 175 -131 448 -300 620 -384 60 -29 148 -72 195 -96 47 -23 112 -51 145 -63 33 -12 83 -30 110 -40 164 -64 242 -92 254 -92 8 0 37 -6 65 -14 153 -43 284 -73 406 -91 58 -9 141 -22 185 -30 98 -18 447 -45 575 -45 129 0 478 27 580 44 47 9 135 23 195 32 106 15 306 59 411 89 28 8 56 15 63 15 6 0 91 30 189 66 97 37 194 73 215 80 85 31 462 227 619 322 196 118 460 314 607 450 57 53 118 108 135 121 34 27 305 321 356 386 100 128 262 352 303 421 27 43 71 115 98 159 45 72 99 177 195 381 112 240 258 690 303 934 48 264 63 387 71 614 10 272 -2 656 -24 791 -8 50 -22 133 -30 185 -24 158 -108 484 -164 635 -71 192 -123 324 -148 375 -14 30 -57 118 -94 195 -38 77 -84 163 -102 190 -18 28 -62 97 -98 155 -58 94 -303 432 -348 479 -9 10 -64 71 -122 136 -143 162 -410 402 -615 555 -174 129 -478 318 -620 385 -44 21 -126 60 -182 86 -57 27 -120 55 -140 63 -36 12 -160 59 -298 111 -55 21 -250 76 -335 95 -19 4 -62 15 -95 24 -64 17 -262 47 -460 71 -117 15 -596 27 -725 19z m695 -195 c72 -8 139 -18 335 -51 124 -20 486 -116 615 -163 72 -26 148 -53 170 -60 89 -29 436 -196 527 -254 35 -21 83 -52 108 -67 195 -119 449 -305 559 -409 36 -35 93 -85 126 -112 87 -72 353 -364 403 -442 9 -14 35 -49 58 -77 58 -72 157 -213 186 -265 14 -24 51 -84 82 -134 73 -115 228 -432 273 -555 18 -52 45 -126 59 -165 40 -107 64 -185 74 -235 5 -25 25 -103 44 -175 81 -308 125 -785 106 -1143 -5 -103 -15 -227 -21 -277 -18 -158 -49 -365 -63 -423 -52 -213 -110 -419 -136 -487 -18 -44 -45 -120 -62 -169 -16 -49 -47 -123 -67 -165 -21 -42 -60 -121 -87 -176 -136 -283 -407 -675 -643 -932 -157 -170 -382 -375 -567 -514 -128 -97 -308 -220 -354 -242 -18 -9 -39 -22 -98 -60 -44 -28 -362 -184 -442 -217 -25 -10 -85 -32 -135 -50 -49 -17 -106 -37 -125 -44 -81 -30 -113 -40 -280 -83 -192 -49 -288 -69 -398 -83 -40 -5 -97 -14 -127 -19 -88 -16 -389 -35 -555 -35 -181 1 -432 18 -574 39 -212 32 -293 46 -341 60 -27 8 -79 21 -115 30 -159 40 -186 48 -210 57 -14 6 -38 14 -55 18 -16 5 -55 18 -85 29 -30 12 -89 33 -130 47 -70 25 -114 44 -353 158 -50 25 -157 84 -237 133 -80 49 -156 96 -170 104 -100 58 -399 299 -550 441 -235 222 -361 361 -475 523 -27 39 -68 95 -91 125 -37 49 -274 434 -274 445 0 3 -29 62 -63 132 -167 336 -298 760 -358 1158 -34 223 -34 227 -50 479 -16 261 -1 503 57 891 50 332 180 743 341 1080 89 185 79 167 203 370 162 267 403 574 599 765 120 118 296 277 345 313 139 103 289 210 311 224 11 6 85 51 165 100 169 103 529 283 565 283 8 0 29 6 47 14 64 28 255 96 313 112 288 76 483 116 730 150 165 23 707 25 890 3z"/> <path d="M5715 7376 c-212 -60 -374 -191 -493 -401 -66 -118 -154 -368 -167 -475 -37 -314 -15 -559 73 -805 63 -180 197 -369 329 -467 59 -43 183 -108 207 -108 8 0 20 -9 26 -19 7 -13 10 -599 10 -1824 0 -1637 1 -1805 16 -1811 9 -3 80 -6 159 -6 107 0 145 3 154 13 8 10 12 506 13 1822 3 1595 5 1809 18 1815 8 4 55 26 103 50 108 52 187 110 253 187 50 58 174 251 174 271 0 5 13 39 29 75 16 35 42 122 57 193 28 123 29 141 29 379 0 241 -1 254 -28 355 -65 245 -169 442 -305 578 -54 55 -88 78 -172 119 -176 85 -327 104 -485 59z"/> <path d="M2421 7356 c-42 -50 -111 -517 -111 -747 1 -181 28 -444 70 -662 41 -215 187 -524 304 -645 60 -63 162 -139 229 -171 35 -16 47 -28 47 -44 0 -12 0 -828 0 -1813 0 -1516 2 -1793 14 -1803 9 -8 66 -11 182 -9 l169 3 5 1820 c3 1001 6 1821 8 1823 1 2 24 13 50 25 72 34 181 118 240 186 49 56 145 209 184 291 94 200 155 452 178 734 13 167 13 476 -1 591 -20 173 -68 393 -91 423 -15 17 -231 17 -246 -1 -11 -13 -17 -56 -46 -337 -9 -80 -23 -215 -32 -300 -24 -226 -33 -313 -44 -425 -5 -55 -14 -118 -19 -140 -6 -22 -11 -59 -11 -82 0 -23 -4 -44 -9 -47 -12 -8 -21 47 -31 179 -5 61 -16 178 -24 260 -9 83 -20 206 -25 275 -6 69 -12 143 -15 165 -3 22 -13 126 -22 230 -9 105 -20 200 -25 213 -8 22 -12 22 -173 22 -119 0 -166 -3 -174 -12 -8 -12 -46 -321 -73 -603 -5 -55 -12 -107 -15 -115 -3 -8 -10 -62 -15 -120 -6 -58 -14 -143 -19 -190 -5 -47 -12 -124 -16 -173 -7 -84 -23 -131 -40 -114 -5 4 -11 56 -15 115 -4 59 -11 152 -17 207 -14 128 -28 299 -47 545 -29 374 -35 433 -46 446 -16 20 -262 20 -278 0z"/> </g> </svg> 